<svg width="320" height="71" viewBox="0 0 320 71" fill="none" xmlns="http://www.w3.org/2000/svg">
<path d="M11.5 0H35.5V14.5H14V32.5H35.5V47H14V70H0V11C0 5 5 0 11.5 0Z" fill="white"/>
<path d="M59 0H35V14.5H56.5V32.5H35V47H56.5V70H70.5V11C70.5 5 65.5 0 59 0Z" fill="white"/>
<path fill-rule="evenodd" clip-rule="evenodd" d="M82.5 70.5V0H98L138.5 46V0H154V70.5H138.5L98 23V70.5H82.5ZM166 70.5V0H224C228.227 0 234.5 6 234.5 11V28.6827C234.5 30.2431 233.418 31.3483 232.731 32.0497C232.097 32.6967 231.8 33 233 33C236.333 33 237.5 36.341 237.5 39.5V57C237.5 66.6 228.5 70 224 70.5H166ZM181 14H220V27H181V14ZM222 41H181V56H222V41Z" fill="white"/>
<path fill-rule="evenodd" clip-rule="evenodd" d="M248.5 0V70.5H309.5C312.833 70.1667 319.5 67.6 319.5 60V10C319.5 6.66667 317.5 0 309.5 0H248.5ZM305 15H263V55H305V15Z" fill="white"/>
</svg>
